<mxfile host="app.diagrams.net" modified="2020-08-20T19:54:39.547Z" agent="5.0 (Macintosh; Intel Mac OS X 10_15_4) AppleWebKit/537.36 (KHTML, like Gecko) Chrome/84.0.4147.125 Safari/537.36" etag="SUfb9TJRriwyTrKdvKaB" version="13.6.4" type="github">
  <diagram id="C5RBs43oDa-KdzZeNtuy" name="Page-1">
    <mxGraphModel dx="2163" dy="1443" grid="1" gridSize="10" guides="1" tooltips="1" connect="1" arrows="1" fold="1" page="1" pageScale="1" pageWidth="827" pageHeight="1169" math="0" shadow="0">
      <root>
        <mxCell id="WIyWlLk6GJQsqaUBKTNV-0" />
        <mxCell id="WIyWlLk6GJQsqaUBKTNV-1" parent="WIyWlLk6GJQsqaUBKTNV-0" />
        <mxCell id="3VqHHY2iRdpAzo7Dcu-S-14" value="" style="edgeStyle=none;rounded=0;orthogonalLoop=1;jettySize=auto;html=1;startArrow=none;startFill=0;endArrow=classicThin;endFill=1;strokeWidth=2;" edge="1" parent="WIyWlLk6GJQsqaUBKTNV-1" source="3VqHHY2iRdpAzo7Dcu-S-0" target="3VqHHY2iRdpAzo7Dcu-S-2">
          <mxGeometry relative="1" as="geometry" />
        </mxCell>
        <mxCell id="3VqHHY2iRdpAzo7Dcu-S-27" value="goods" style="edgeLabel;html=1;align=center;verticalAlign=middle;resizable=0;points=[];" vertex="1" connectable="0" parent="3VqHHY2iRdpAzo7Dcu-S-14">
          <mxGeometry x="-0.08" y="-1" relative="1" as="geometry">
            <mxPoint as="offset" />
          </mxGeometry>
        </mxCell>
        <mxCell id="3VqHHY2iRdpAzo7Dcu-S-0" value="GoodsProvider" style="rounded=1;whiteSpace=wrap;html=1;absoluteArcSize=1;arcSize=14;strokeWidth=2;" vertex="1" parent="WIyWlLk6GJQsqaUBKTNV-1">
          <mxGeometry x="260" y="40" width="130" height="60" as="geometry" />
        </mxCell>
        <mxCell id="3VqHHY2iRdpAzo7Dcu-S-10" value="" style="edgeStyle=orthogonalEdgeStyle;rounded=0;orthogonalLoop=1;jettySize=auto;html=1;strokeWidth=2;endArrow=classicThin;endFill=1;" edge="1" parent="WIyWlLk6GJQsqaUBKTNV-1" source="3VqHHY2iRdpAzo7Dcu-S-2" target="3VqHHY2iRdpAzo7Dcu-S-4">
          <mxGeometry relative="1" as="geometry" />
        </mxCell>
        <mxCell id="3VqHHY2iRdpAzo7Dcu-S-26" value="lots" style="edgeLabel;html=1;align=center;verticalAlign=middle;resizable=0;points=[];" vertex="1" connectable="0" parent="3VqHHY2iRdpAzo7Dcu-S-10">
          <mxGeometry x="-0.2317" relative="1" as="geometry">
            <mxPoint as="offset" />
          </mxGeometry>
        </mxCell>
        <mxCell id="3VqHHY2iRdpAzo7Dcu-S-2" value="LotsProvider" style="rounded=1;whiteSpace=wrap;html=1;absoluteArcSize=1;arcSize=14;strokeWidth=2;" vertex="1" parent="WIyWlLk6GJQsqaUBKTNV-1">
          <mxGeometry x="260" y="150" width="130" height="60" as="geometry" />
        </mxCell>
        <mxCell id="3VqHHY2iRdpAzo7Dcu-S-11" value="" style="rounded=0;orthogonalLoop=1;jettySize=auto;html=1;strokeWidth=2;endArrow=classicThin;endFill=1;exitX=1;exitY=0.25;exitDx=0;exitDy=0;entryX=0;entryY=0.25;entryDx=0;entryDy=0;" edge="1" parent="WIyWlLk6GJQsqaUBKTNV-1">
          <mxGeometry relative="1" as="geometry">
            <mxPoint x="390" y="280" as="sourcePoint" />
            <mxPoint x="500" y="280" as="targetPoint" />
          </mxGeometry>
        </mxCell>
        <mxCell id="3VqHHY2iRdpAzo7Dcu-S-15" value="auction invite" style="edgeLabel;html=1;align=center;verticalAlign=middle;resizable=0;points=[];" vertex="1" connectable="0" parent="3VqHHY2iRdpAzo7Dcu-S-11">
          <mxGeometry x="-0.12" y="1" relative="1" as="geometry">
            <mxPoint x="2" y="-9" as="offset" />
          </mxGeometry>
        </mxCell>
        <mxCell id="3VqHHY2iRdpAzo7Dcu-S-12" style="rounded=0;orthogonalLoop=1;jettySize=auto;html=1;entryX=1;entryY=0.5;entryDx=0;entryDy=0;entryPerimeter=0;strokeWidth=2;startArrow=classicThin;startFill=1;endArrow=classicThin;endFill=1;" edge="1" parent="WIyWlLk6GJQsqaUBKTNV-1" source="3VqHHY2iRdpAzo7Dcu-S-4" target="3VqHHY2iRdpAzo7Dcu-S-6">
          <mxGeometry relative="1" as="geometry" />
        </mxCell>
        <mxCell id="3VqHHY2iRdpAzo7Dcu-S-18" value="member candidates" style="edgeLabel;html=1;align=center;verticalAlign=middle;resizable=0;points=[];" vertex="1" connectable="0" parent="3VqHHY2iRdpAzo7Dcu-S-12">
          <mxGeometry x="0.1846" y="-3" relative="1" as="geometry">
            <mxPoint x="8.97" y="-7" as="offset" />
          </mxGeometry>
        </mxCell>
        <mxCell id="3VqHHY2iRdpAzo7Dcu-S-21" style="edgeStyle=orthogonalEdgeStyle;rounded=0;orthogonalLoop=1;jettySize=auto;html=1;exitX=0.5;exitY=1;exitDx=0;exitDy=0;startArrow=none;startFill=0;endArrow=classicThin;endFill=1;strokeWidth=2;entryX=0.5;entryY=1;entryDx=0;entryDy=0;" edge="1" parent="WIyWlLk6GJQsqaUBKTNV-1" source="3VqHHY2iRdpAzo7Dcu-S-4" target="3VqHHY2iRdpAzo7Dcu-S-9">
          <mxGeometry relative="1" as="geometry">
            <mxPoint x="325" y="440" as="targetPoint" />
            <Array as="points">
              <mxPoint x="325" y="400" />
              <mxPoint x="565" y="400" />
            </Array>
          </mxGeometry>
        </mxCell>
        <mxCell id="3VqHHY2iRdpAzo7Dcu-S-23" value="winner notification" style="edgeLabel;html=1;align=center;verticalAlign=middle;resizable=0;points=[];" vertex="1" connectable="0" parent="3VqHHY2iRdpAzo7Dcu-S-21">
          <mxGeometry x="-0.2242" relative="1" as="geometry">
            <mxPoint x="49.79" y="-9.97" as="offset" />
          </mxGeometry>
        </mxCell>
        <mxCell id="3VqHHY2iRdpAzo7Dcu-S-22" style="edgeStyle=orthogonalEdgeStyle;rounded=0;orthogonalLoop=1;jettySize=auto;html=1;exitX=0.5;exitY=1;exitDx=0;exitDy=0;entryX=1;entryY=0.5;entryDx=0;entryDy=0;entryPerimeter=0;startArrow=none;startFill=0;endArrow=classicThin;endFill=1;strokeWidth=2;" edge="1" parent="WIyWlLk6GJQsqaUBKTNV-1" source="3VqHHY2iRdpAzo7Dcu-S-4" target="3VqHHY2iRdpAzo7Dcu-S-8">
          <mxGeometry relative="1" as="geometry" />
        </mxCell>
        <mxCell id="3VqHHY2iRdpAzo7Dcu-S-24" value="auction stats" style="edgeLabel;html=1;align=center;verticalAlign=middle;resizable=0;points=[];" vertex="1" connectable="0" parent="3VqHHY2iRdpAzo7Dcu-S-22">
          <mxGeometry x="0.4353" y="-2" relative="1" as="geometry">
            <mxPoint y="-7.99" as="offset" />
          </mxGeometry>
        </mxCell>
        <mxCell id="3VqHHY2iRdpAzo7Dcu-S-4" value="Auctions" style="rounded=1;whiteSpace=wrap;html=1;absoluteArcSize=1;arcSize=14;strokeWidth=2;" vertex="1" parent="WIyWlLk6GJQsqaUBKTNV-1">
          <mxGeometry x="260" y="260" width="130" height="60" as="geometry" />
        </mxCell>
        <mxCell id="3VqHHY2iRdpAzo7Dcu-S-6" value="DspStore" style="strokeWidth=2;html=1;shape=mxgraph.flowchart.database;whiteSpace=wrap;" vertex="1" parent="WIyWlLk6GJQsqaUBKTNV-1">
          <mxGeometry x="30" y="260" width="80" height="60" as="geometry" />
        </mxCell>
        <mxCell id="3VqHHY2iRdpAzo7Dcu-S-8" value="History" style="strokeWidth=2;html=1;shape=mxgraph.flowchart.database;whiteSpace=wrap;" vertex="1" parent="WIyWlLk6GJQsqaUBKTNV-1">
          <mxGeometry x="30" y="370" width="80" height="60" as="geometry" />
        </mxCell>
        <mxCell id="3VqHHY2iRdpAzo7Dcu-S-16" value="" style="edgeStyle=none;rounded=0;orthogonalLoop=1;jettySize=auto;html=1;startArrow=none;startFill=0;endArrow=classicThin;endFill=1;strokeWidth=2;entryX=1;entryY=0.75;entryDx=0;entryDy=0;exitX=0;exitY=0.75;exitDx=0;exitDy=0;" edge="1" parent="WIyWlLk6GJQsqaUBKTNV-1" source="3VqHHY2iRdpAzo7Dcu-S-9" target="3VqHHY2iRdpAzo7Dcu-S-4">
          <mxGeometry relative="1" as="geometry">
            <mxPoint x="440" y="330" as="sourcePoint" />
            <mxPoint x="350" y="330" as="targetPoint" />
          </mxGeometry>
        </mxCell>
        <mxCell id="3VqHHY2iRdpAzo7Dcu-S-25" value="members" style="edgeLabel;html=1;align=center;verticalAlign=middle;resizable=0;points=[];" vertex="1" connectable="0" parent="3VqHHY2iRdpAzo7Dcu-S-16">
          <mxGeometry x="-0.0251" y="-1" relative="1" as="geometry">
            <mxPoint y="-14" as="offset" />
          </mxGeometry>
        </mxCell>
        <mxCell id="3VqHHY2iRdpAzo7Dcu-S-29" value="aucton invite" style="edgeStyle=orthogonalEdgeStyle;rounded=0;orthogonalLoop=1;jettySize=auto;html=1;exitX=1;exitY=0.25;exitDx=0;exitDy=0;entryX=0;entryY=0.25;entryDx=0;entryDy=0;startArrow=classicThin;startFill=1;endArrow=classicThin;endFill=1;strokeWidth=2;" edge="1" parent="WIyWlLk6GJQsqaUBKTNV-1" source="3VqHHY2iRdpAzo7Dcu-S-9" target="3VqHHY2iRdpAzo7Dcu-S-28">
          <mxGeometry y="15" relative="1" as="geometry">
            <mxPoint as="offset" />
          </mxGeometry>
        </mxCell>
        <mxCell id="3VqHHY2iRdpAzo7Dcu-S-30" style="edgeStyle=orthogonalEdgeStyle;rounded=0;orthogonalLoop=1;jettySize=auto;html=1;exitX=1;exitY=0.75;exitDx=0;exitDy=0;entryX=0;entryY=0.75;entryDx=0;entryDy=0;startArrow=classicThin;startFill=1;endArrow=classicThin;endFill=1;strokeWidth=2;" edge="1" parent="WIyWlLk6GJQsqaUBKTNV-1" source="3VqHHY2iRdpAzo7Dcu-S-9" target="3VqHHY2iRdpAzo7Dcu-S-28">
          <mxGeometry relative="1" as="geometry" />
        </mxCell>
        <mxCell id="3VqHHY2iRdpAzo7Dcu-S-31" value="win notification" style="edgeLabel;html=1;align=center;verticalAlign=middle;resizable=0;points=[];" vertex="1" connectable="0" parent="3VqHHY2iRdpAzo7Dcu-S-30">
          <mxGeometry x="-0.2" y="3" relative="1" as="geometry">
            <mxPoint x="18" y="-12" as="offset" />
          </mxGeometry>
        </mxCell>
        <mxCell id="3VqHHY2iRdpAzo7Dcu-S-9" value="DspLiaison" style="rounded=1;whiteSpace=wrap;html=1;absoluteArcSize=1;arcSize=14;strokeWidth=2;" vertex="1" parent="WIyWlLk6GJQsqaUBKTNV-1">
          <mxGeometry x="500" y="260" width="130" height="60" as="geometry" />
        </mxCell>
        <mxCell id="3VqHHY2iRdpAzo7Dcu-S-28" value="DSP" style="rounded=1;whiteSpace=wrap;html=1;absoluteArcSize=1;arcSize=14;strokeWidth=2;dashed=1;" vertex="1" parent="WIyWlLk6GJQsqaUBKTNV-1">
          <mxGeometry x="760" y="260" width="130" height="60" as="geometry" />
        </mxCell>
      </root>
    </mxGraphModel>
  </diagram>
</mxfile>
